<?xml version="1.0" encoding="utf-8"?>
<!-- Generator: Adobe Illustrator 23.0.3, SVG Export Plug-In . SVG Version: 6.00 Build 0)  -->
<svg version="1.1" id="Capa_1" xmlns="http://www.w3.org/2000/svg" xmlns:xlink="http://www.w3.org/1999/xlink" x="0px" y="0px"
	 viewBox="0 0 21.11 25.77" style="enable-background:new 0 0 21.11 25.77;" xml:space="preserve">
<path d="M20.69,10.84c-0.59,0.65-1.61,0.7-2.26,0.11l-6.27-5.72v18.94c0,0.88-0.72,1.6-1.6,1.6c-0.88,0-1.6-0.72-1.6-1.6V5.22
	l-6.28,5.72c-0.65,0.6-1.67,0.55-2.26-0.11c-0.6-0.65-0.55-1.66,0.11-2.26l8.96-8.16C9.78,0.14,10.17,0,10.56,0s0.77,0.14,1.08,0.42
	l8.96,8.16C21.24,9.17,21.29,10.18,20.69,10.84z"/>
</svg>
