<?xml version="1.0" encoding="utf-8"?>
<!-- Generator: Adobe Illustrator 23.0.3, SVG Export Plug-In . SVG Version: 6.00 Build 0)  -->
<svg version="1.1" id="Capa_1" xmlns="http://www.w3.org/2000/svg" xmlns:xlink="http://www.w3.org/1999/xlink" x="0px" y="0px"
	 viewBox="0 0 25.77 21.11" style="enable-background:new 0 0 25.77 21.11;" xml:space="preserve">
<style>
	path { fill: #ffffff; }
</style>
<path d="M14.93,20.69c-0.65-0.59-0.7-1.61-0.11-2.26l5.72-6.27H1.6c-0.88,0-1.6-0.72-1.6-1.6c0-0.88,0.72-1.6,1.6-1.6h18.95
	l-5.72-6.28c-0.6-0.65-0.55-1.67,0.11-2.26c0.65-0.6,1.66-0.55,2.26,0.11l8.16,8.96c0.28,0.31,0.42,0.69,0.42,1.08
	s-0.14,0.77-0.42,1.08l-8.16,8.96C16.6,21.24,15.59,21.29,14.93,20.69z"/>
</svg>