<?xml version="1.0" encoding="utf-8"?>
<!-- Generator: Adobe Illustrator 23.0.3, SVG Export Plug-In . SVG Version: 6.00 Build 0)  -->
<svg version="1.1" id="Capa_1" xmlns="http://www.w3.org/2000/svg" xmlns:xlink="http://www.w3.org/1999/xlink" x="0px" y="0px"
	 viewBox="0 0 54.8 54.8" style="enable-background:new 0 0 54.8 54.8;" xml:space="preserve">
<style>
	path { fill: #008ef0; }
</style>
<path class="map" d="M40.9,5.6C37.3,2,32.5,0,27.4,0c-5.1,0-9.9,2-13.6,5.6c-6.7,6.7-7.5,19.3-1.8,27l13.6,19.6c0.9,1.2,2.7,1.2,3.6,0l13.6-19.6
	C48.5,24.9,47.6,12.3,40.9,5.6z M28.9,25.9c-4.9,0.9-9.2-3.3-8.2-8.2c0.5-2.8,2.7-5,5.5-5.5c4.9-0.9,9.2,3.3,8.2,8.2
	C33.9,23.1,31.7,25.3,28.9,25.9z"/>
</svg>
