<?xml version="1.0" encoding="utf-8"?>
<!-- Generator: Adobe Illustrator 23.0.3, SVG Export Plug-In . SVG Version: 6.00 Build 0)  -->
<svg version="1.1" id="P2" xmlns="http://www.w3.org/2000/svg" xmlns:xlink="http://www.w3.org/1999/xlink" x="0px" y="0px"
	 viewBox="0 0 179.21 192.22" style="enable-background:new 0 0 179.21 192.22;" xml:space="preserve">
<style type="text/css">
	.st0{fill:#ffffff;}
</style>
<path class="st0" d="M160.76,192.12H18.64C8.2,193.26-0.3,184.77-0.3,174.32v-5.09c0-1.52,1.23-2.75,2.75-2.75s2.75,1.23,2.75,2.75
	v5.09c0,7.41,6.03,13.43,13.44,13.43h142.11c7.41,0,13.43-6.03,13.43-13.43v-5.09c0-1.52,1.23-2.75,2.75-2.75s2.75,1.23,2.75,2.75
	v5.09C179.7,184.77,171.2,193.27,160.76,192.12z"/>
<path class="st0" d="M176.94,78.26c-0.66,0-1.32-0.23-1.84-0.71L99.98,9.8c-2.77-2.77-6.44-4.29-10.35-4.3c0,0-0.01,0-0.01,0
	c-3.9,0-7.57,1.52-10.33,4.28l-0.1,0.1L4.3,77.41c-1.13,1.02-2.87,0.93-3.89-0.2s-0.93-2.87,0.2-3.89L75.45,5.84
	C79.24,2.07,84.27,0,89.62,0c0.01,0,0.01,0,0.02,0c5.36,0,10.39,2.08,14.19,5.86l74.96,67.61c1.13,1.02,1.22,2.76,0.2,3.89
	C178.45,77.96,177.7,78.26,176.94,78.26z"/>
</svg>
